<mxfile host="app.diagrams.net" modified="2021-04-07T08:28:42.220Z" agent="5.0 (Macintosh; Intel Mac OS X 11_2_3) AppleWebKit/537.36 (KHTML, like Gecko) Chrome/89.0.4389.90 Safari/537.36 Edg/89.0.774.57" etag="l8GHIVxck_7mql3X72Xt" version="14.5.8" type="github">
  <diagram id="1W3HjO3jJwhMHzLndbBK">
    <mxGraphModel dx="1298" dy="713" grid="1" gridSize="10" guides="1" tooltips="1" connect="1" arrows="1" fold="1" page="1" pageScale="1" pageWidth="827" pageHeight="1169" math="0" shadow="0">
      <root>
        <mxCell id="0" />
        <mxCell id="1" parent="0" />
        <mxCell id="d2ImH5UCGWpv8bORTgFu-2" value="&lt;span style=&quot;color: rgb(25 , 25 , 25) ; font-size: 13.3333px ; background-color: rgb(255 , 255 , 255)&quot;&gt;Python3Exec-0&lt;/span&gt;" style="shape=mxgraph.cisco.hubs_and_gateways.small_hub;html=1;pointerEvents=1;dashed=0;fillColor=#036897;strokeColor=#ffffff;strokeWidth=2;verticalLabelPosition=bottom;verticalAlign=top;align=center;outlineConnect=0;" vertex="1" parent="1">
          <mxGeometry x="60" y="430" width="90" height="45" as="geometry" />
        </mxCell>
        <mxCell id="d2ImH5UCGWpv8bORTgFu-3" value="&lt;span style=&quot;color: rgb(25 , 25 , 25) ; font-size: 13.3333px ; background-color: rgb(255 , 255 , 255)&quot;&gt;Python3Exec-1&lt;/span&gt;" style="shape=mxgraph.cisco.hubs_and_gateways.small_hub;html=1;pointerEvents=1;dashed=0;fillColor=#036897;strokeColor=#ffffff;strokeWidth=2;verticalLabelPosition=bottom;verticalAlign=top;align=center;outlineConnect=0;" vertex="1" parent="1">
          <mxGeometry x="200" y="430" width="90" height="45" as="geometry" />
        </mxCell>
        <mxCell id="d2ImH5UCGWpv8bORTgFu-4" value="&lt;span style=&quot;color: rgb(25 , 25 , 25) ; font-size: 13.3333px ; background-color: rgb(255 , 255 , 255)&quot;&gt;Python3Exec-0&lt;/span&gt;" style="shape=mxgraph.cisco.hubs_and_gateways.small_hub;html=1;pointerEvents=1;dashed=0;fillColor=#036897;strokeColor=#ffffff;strokeWidth=2;verticalLabelPosition=bottom;verticalAlign=top;align=center;outlineConnect=0;" vertex="1" parent="1">
          <mxGeometry x="340" y="430" width="90" height="45" as="geometry" />
        </mxCell>
        <mxCell id="d2ImH5UCGWpv8bORTgFu-5" value="&lt;span style=&quot;color: rgb(25 , 25 , 25) ; font-size: 13.3333px ; background-color: rgb(255 , 255 , 255)&quot;&gt;Python3Exec-1&lt;/span&gt;" style="shape=mxgraph.cisco.hubs_and_gateways.small_hub;html=1;pointerEvents=1;dashed=0;fillColor=#036897;strokeColor=#ffffff;strokeWidth=2;verticalLabelPosition=bottom;verticalAlign=top;align=center;outlineConnect=0;" vertex="1" parent="1">
          <mxGeometry x="480" y="430" width="90" height="45" as="geometry" />
        </mxCell>
      </root>
    </mxGraphModel>
  </diagram>
</mxfile>
